# xmcd
#
# Track frame offsets:
# 151
# 12882
# 31534
# 41884
# 52776
# 64647
# 77772
# 95198
# 108055
# 121872
# 146031
# 161069
# 186307
# 197792
#
# Disc length: 2908 seconds
#
#
# Revision: 0
# Processed by: cddbd v1.5.1PL0 Copyright (c) Steve Scherf et al.
# Submitted via: FreeRIP 2.92 
#
DISCID=b50b5a0e
DTITLE=Shake 'Em On Down - Ain't No Coolin
DYEAR=1900
DGENRE=Blues
TTITLE0=I Don't Believe
TTITLE1=Homework
TTITLE2=Good Good Lovin'
TTITLE3=I Hear You Knockin'
TTITLE4=My Babe
TTITLE5=Let's Go, Let's Go, Let's Go!
TTITLE6=Hound Dog
TTITLE7=If You Love Me Like You Say
TTITLE8=Mama He Treats Your Daughter Mean
TTITLE9=Down On Bendin' Knees
TTITLE10=Cut You Loose
TTITLE11=Come On In This House
TTITLE12=Too Tired
TTITLE13=Shake Your Hips
EXTD=
EXTT0=
EXTT1=
EXTT2=
EXTT3=
EXTT4=
EXTT5=
EXTT6=
EXTT7=
EXTT8=
EXTT9=
EXTT10=
EXTT11=
EXTT12=
EXTT13=
PLAYORDER=
